<svg xmlns="http://www.w3.org/2000/svg" width="36" height="51" viewBox="0 0 36 51" fill="none">
    <path d="M18 36.8789C27.9411 36.8789 36 28.82 36 18.8789C36 8.93778 27.9411 0.878906 18 0.878906C8.05887 0.878906 0 8.93778 0 18.8789C0 28.82 8.05887 36.8789 18 36.8789Z" fill="#EAEAFF"/>
    <path d="M18 36.8789C14.4399 36.8789 10.9598 35.8232 7.99974 33.8454C5.03966 31.8675 2.73255 29.0563 1.37018 25.7672C0.00779915 22.4781 -0.348661 18.8589 0.345873 15.3673C1.04041 11.8756 2.75474 8.66834 5.27209 6.15099C7.78943 3.63365 10.9967 1.91931 14.4884 1.22478C17.98 0.530245 21.5992 0.886705 24.8883 2.24908C28.1774 3.61146 30.9886 5.91857 32.9665 8.87865C34.9443 11.8387 36 15.3189 36 18.8789C36 23.6528 34.1036 28.2312 30.7279 31.6068C27.3523 34.9825 22.7739 36.8789 18 36.8789Z" fill="#FFEBF0"/>
    <path d="M20.2 14.8889C20.5167 14.728 20.8762 14.6717 21.227 14.7279C21.5563 14.7516 21.8735 14.8624 22.146 15.0489" fill="white"/>
    <path d="M17.0759 14.8889C16.7592 14.728 16.3996 14.6717 16.0489 14.7279C15.7194 14.7519 15.4023 14.863 15.1299 15.0499" fill="white"/>
    <path d="M27.0381 41.1759L29.6711 48.2099C31.9597 47.1275 34.0892 45.7365 36.0001 44.0759C35.5381 42.7199 35.1381 41.6939 35.1381 41.6939L27.0381 41.1759Z" fill="#DA5742"/>
    <path d="M6.356 48.3439L9.1 40.9889L1 41.5069C1 41.5159 0.518 42.7559 0 44.3099C1.92373 45.9396 4.06243 47.2969 6.356 48.3439Z" fill="#DA5742"/>
    <path d="M27.0381 41.1759L27.9481 43.5679L35.9821 44.0679C35.5451 42.8099 35.1381 41.6939 35.1381 41.6939L27.0381 41.1759Z" fill="#C43D28"/>
    <path d="M9.18497 40.7299L8.27497 43.1219L0.115967 43.9169C0.552967 42.6669 1.08897 41.2479 1.08897 41.2479L9.18497 40.7299Z" fill="#C43D28"/>
    <path d="M8.84701 30.1569C5.31001 31.7679 1.43801 36.7309 0.0100098 42.5509H6.33001L5.28501 47.8349C9.17882 49.8251 13.4901 50.8609 17.863 50.8569C22.253 50.8642 26.581 49.8205 30.485 47.8129L29.378 43.2339L35.769 42.6629C35.76 42.6629 34.287 34.4509 27.548 30.5629C22.147 27.4569 13.828 27.9209 8.84701 30.1569Z" fill="#3D5CFF"/>
    <path d="M8.05195 36.5609L4.29395 42.5509L6.42695 42.5419L8.05195 36.5609Z" fill="#224BF4"/>
    <path d="M29.3771 43.2299L31.2771 43.0689L27.0381 35.8119L29.3771 43.2299Z" fill="#224BF4"/>
    <path d="M6.40895 42.6409C6.3868 42.6343 6.36792 42.6197 6.35606 42.5999C6.34421 42.58 6.34024 42.5565 6.34495 42.5339L8.13195 35.9099C8.1385 35.8877 8.15313 35.8688 8.17296 35.857C8.19278 35.8451 8.21634 35.8412 8.23895 35.8459C8.26073 35.8528 8.27915 35.8676 8.29061 35.8874C8.30207 35.9072 8.30576 35.9305 8.30095 35.9529L6.51595 42.5779C6.51089 42.5953 6.50041 42.6107 6.48604 42.6219C6.47167 42.633 6.45413 42.6393 6.43595 42.6399L6.40895 42.6409Z" fill="#1F1F39"/>
    <path d="M29.2071 43.2289L26.9221 35.8119C26.9183 35.8014 26.9167 35.7903 26.9174 35.7791C26.918 35.768 26.9209 35.7571 26.9259 35.7472C26.9308 35.7372 26.9377 35.7283 26.9462 35.721C26.9546 35.7138 26.9645 35.7083 26.9751 35.7049C26.9856 35.7012 26.9967 35.6996 27.0078 35.7002C27.019 35.7009 27.0298 35.7038 27.0398 35.7087C27.0498 35.7136 27.0587 35.7205 27.0659 35.729C27.0732 35.7375 27.0787 35.7473 27.0821 35.7579L29.3761 43.1759C29.3798 43.1865 29.3813 43.1977 29.3806 43.2088C29.3799 43.22 29.3769 43.2309 29.3719 43.2409C29.3669 43.2509 29.3598 43.2598 29.3513 43.267C29.3427 43.2742 29.3328 43.2796 29.3221 43.2829C29.3041 43.2829 29.2951 43.2919 29.2861 43.2919C29.2679 43.2911 29.2505 43.2845 29.2363 43.2732C29.2222 43.2619 29.2119 43.2464 29.2071 43.2289Z" fill="#1F1F39"/>
    <path d="M11.607 15.5939C11.607 15.5939 9.51802 15.5939 8.95602 14.6839C8.80001 14.4368 8.74039 14.1409 8.78852 13.8527C8.83666 13.5644 8.98918 13.304 9.21702 13.1209C8.90869 12.7174 8.69954 12.2471 8.60643 11.7478C8.51333 11.2486 8.53888 10.7345 8.68102 10.2469C8.86985 9.79757 9.20636 9.42609 9.63493 9.1939C10.0635 8.9617 10.5585 8.8827 11.038 8.96993C11.038 8.96993 9.83302 6.83693 11.307 5.23893C13.107 3.27493 16.127 5.23893 16.127 5.23893C16.1851 4.88164 16.3688 4.55681 16.6451 4.32289C16.9214 4.08898 17.272 3.96134 17.634 3.96293C18.934 3.96293 18.934 4.74893 18.934 4.74893C19.3106 4.28237 19.8184 3.93935 20.3918 3.76413C20.9652 3.58892 21.578 3.58954 22.151 3.76593C25.159 4.64993 24.641 7.98793 24.641 7.98793C24.8176 7.95095 24.9999 7.9497 25.177 7.98425C25.3541 8.0188 25.5225 8.08846 25.6722 8.18911C25.822 8.28976 25.9501 8.41937 26.049 8.5703C26.1479 8.72124 26.2155 8.89044 26.248 9.06793C26.3668 9.43502 26.3395 9.83375 26.1719 10.1813C26.0043 10.5288 25.7092 10.7983 25.348 10.9339C25.348 10.9339 26.562 10.7339 26.865 11.7199C26.9945 12.1322 26.9864 12.5753 26.8421 12.9825C26.6978 13.3898 26.4251 13.7391 26.065 13.9779L25.36 17.4149L11.899 17.9679L11.607 15.5939Z" fill="#1F1F39"/>
    <path d="M9.27896 15.2889C7.82396 15.9589 7.67196 17.9759 8.76996 19.2439C9.86796 20.5119 12.635 20.2169 12.635 20.2169L12.233 15.6819C11.8073 15.3863 11.3172 15.1965 10.8035 15.1281C10.2898 15.0598 9.76713 15.1149 9.27896 15.2889Z" fill="#C43D28"/>
    <path d="M26.72 15.2899C28.175 15.9589 28.327 17.9769 27.229 19.2439C26.131 20.5109 23.364 20.2169 23.364 20.2169L24.105 15.6199C24.4685 15.3299 24.9048 15.1457 25.3661 15.0875C25.8275 15.0293 26.2959 15.0993 26.72 15.2899Z" fill="#C43D28"/>
    <path d="M24.1501 19.2789C24.2169 18.7436 24.4238 18.2355 24.7501 17.8059C25.1785 17.2123 25.7892 16.7751 26.4891 16.5609C26.5032 16.5567 26.518 16.5555 26.5325 16.5573C26.5471 16.5592 26.5611 16.564 26.5737 16.5715C26.5863 16.579 26.5972 16.5891 26.6057 16.601C26.6142 16.613 26.6202 16.6266 26.6231 16.6409C26.6273 16.655 26.6285 16.6698 26.6267 16.6843C26.6249 16.6989 26.6201 16.7129 26.6126 16.7255C26.605 16.7381 26.595 16.749 26.583 16.7575C26.5711 16.766 26.5575 16.7719 26.5431 16.7749C25.8958 16.9749 25.3295 17.3769 24.9271 17.9219C24.6254 18.318 24.4315 18.7856 24.3641 19.2789C24.3636 19.3071 24.3522 19.3341 24.3322 19.354C24.3123 19.374 24.2854 19.3854 24.2571 19.3859C24.2289 19.3854 24.202 19.374 24.1821 19.354C24.1621 19.3341 24.1507 19.3071 24.1501 19.2789V19.2789Z" fill="#1F1F39"/>
    <path d="M12.1261 19.2799C12.0581 18.7873 11.8653 18.3202 11.5661 17.9229C11.1655 17.3762 10.5974 16.9752 9.94805 16.7809C9.92019 16.7728 9.89637 16.7545 9.88122 16.7297C9.86606 16.705 9.86066 16.6755 9.86605 16.6469C9.87484 16.619 9.8935 16.5953 9.91855 16.5802C9.94359 16.5651 9.97328 16.5597 10.0021 16.5649C10.7038 16.7744 11.3159 17.2113 11.7421 17.8069C12.072 18.2344 12.2794 18.7436 12.3421 19.2799C12.3421 19.294 12.3393 19.3079 12.3339 19.3209C12.3285 19.3339 12.3206 19.3457 12.3107 19.3556C12.3008 19.3655 12.289 19.3734 12.276 19.3788C12.263 19.3842 12.2491 19.3869 12.2351 19.3869C12.221 19.3869 12.2071 19.3842 12.1941 19.3788C12.1811 19.3734 12.1693 19.3655 12.1594 19.3556C12.1495 19.3457 12.1416 19.3339 12.1362 19.3209C12.1308 19.3079 12.1281 19.294 12.1281 19.2799H12.1261Z" fill="#1F1F39"/>
    <path d="M14.9651 24.3049L14.5991 29.3749C14.5991 29.3749 15.1081 30.4909 17.7991 30.4909C20.7181 30.4909 21.5211 29.3749 21.5211 29.3749L21.3831 24.3809C21.3831 24.3809 23.2041 24.0859 24.0831 20.8019C24.6089 18.7845 24.757 16.6872 24.5201 14.6159C24.5201 14.6159 20.2201 15.2849 18.7631 13.4999C17.3061 11.7149 15.8371 9.92493 13.7241 10.8179C11.6111 11.7109 11.8761 17.4679 12.4301 20.2079C12.7789 21.8244 13.6742 23.2713 14.9651 24.3049Z" fill="#DA5742"/>
    <path d="M15.9111 17.4679C15.7199 17.4501 15.5434 17.3578 15.4197 17.2109C15.296 17.064 15.2351 16.8744 15.2501 16.6829C15.2348 16.4913 15.2956 16.3014 15.4193 16.1543C15.5431 16.0072 15.7197 15.9147 15.9111 15.8969C16.1025 15.9147 16.2792 16.0072 16.4029 16.1543C16.5266 16.3014 16.5874 16.4913 16.5721 16.6829C16.5871 16.8744 16.5262 17.064 16.4025 17.2109C16.2788 17.3578 16.1023 17.4501 15.9111 17.4679Z" fill="#1F1F39"/>
    <path d="M20.7231 17.4679C20.5319 17.4501 20.3554 17.3578 20.2317 17.2109C20.108 17.064 20.0471 16.8744 20.0621 16.6829C20.0468 16.4913 20.1076 16.3014 20.2314 16.1543C20.3551 16.0072 20.5317 15.9147 20.7231 15.8969C20.9145 15.9147 21.0912 16.0072 21.2149 16.1543C21.3386 16.3014 21.3994 16.4913 21.3841 16.6829C21.3991 16.8744 21.3382 17.064 21.2145 17.2109C21.0909 17.3578 20.9143 17.4501 20.7231 17.4679Z" fill="#1F1F39"/>
    <path d="M17.811 17.7629C18.034 18.2089 18.611 17.9859 18.611 17.9859C18.611 17.9859 18.031 17.8339 18.031 17.3859C18.031 16.9379 17.99 15.4149 17.99 15.4149C17.8005 16.1822 17.74 16.9757 17.811 17.7629Z" fill="#1F1F39"/>
    <path d="M14.759 28.0049C14.804 27.9919 19.588 26.1349 20.49 25.2869C20.49 24.7689 20.508 24.3869 20.508 24.3869C19.5663 24.7902 18.5365 24.9438 17.518 24.8329C16.6392 24.8367 15.7693 24.6569 14.964 24.3049C14.973 24.7599 14.804 27.8219 14.759 28.0049Z" fill="#C43D28"/>
    <path d="M21.9271 19.4049C21.1431 19.4049 20.5081 19.0059 20.5081 18.5129C20.5081 18.0199 21.1431 17.6199 21.9271 17.6199C22.7111 17.6199 23.3471 18.0199 23.3471 18.5129C23.3471 19.0059 22.7081 19.4049 21.9271 19.4049Z" fill="#C43D28"/>
    <path d="M14.42 19.4049C13.636 19.4049 13.001 19.0059 13.001 18.5129C13.001 18.0199 13.636 17.6199 14.42 17.6199C15.204 17.6199 15.84 18.0199 15.84 18.5129C15.84 19.0059 15.201 19.4049 14.42 19.4049Z" fill="#C43D28"/>
    <path d="M18.3019 19.6109C18.6849 19.45 19.0453 19.2399 19.3739 18.9859C19.3739 18.9859 19.5529 18.8969 19.6419 18.9859C19.5739 19.251 19.4515 19.499 19.2825 19.7142C19.1134 19.9294 18.9014 20.1071 18.6599 20.2359C18.4184 20.3158 18.1575 20.3155 17.9161 20.235C17.6748 20.1544 17.466 19.9979 17.3209 19.7889C17.0529 19.4319 17.4099 19.5209 17.4099 19.5209C17.6966 19.618 18.0016 19.6488 18.3019 19.6109Z" fill="white"/>
    <path d="M14.911 22.4659C16.25 22.8229 16 23.4479 16.58 23.1799C17.16 22.9119 17.33 22.3799 18.508 22.5549C19.686 22.7299 19.427 23.3549 20.177 23.2689C21.1467 22.9746 22.0336 22.4563 22.766 21.7559C23.355 21.2159 24.185 20.3239 24.185 20.3239C24.185 20.3239 23.649 24.0729 20.668 24.9659C18.427 25.6349 15.25 25.3229 13.83 23.2659C13.0801 22.3305 12.5633 21.2303 12.322 20.0559C12.322 20.0559 13.572 22.1089 14.911 22.4659Z" fill="#1F1F39"/>
    <path d="M16.276 22.0209C16.2631 22.0137 16.2521 22.0037 16.2435 21.9917C16.235 21.9796 16.2292 21.9658 16.2266 21.9513C16.2241 21.9368 16.2247 21.9219 16.2286 21.9076C16.2325 21.8934 16.2394 21.8802 16.249 21.8689L16.606 21.3329C16.6132 21.3201 16.6232 21.309 16.6353 21.3005C16.6473 21.2919 16.6611 21.2862 16.6756 21.2836C16.6902 21.281 16.7051 21.2817 16.7193 21.2855C16.7336 21.2894 16.7468 21.2964 16.758 21.3059C16.7709 21.3132 16.782 21.3232 16.7905 21.3352C16.799 21.3473 16.8048 21.361 16.8074 21.3756C16.8099 21.3901 16.8093 21.405 16.8054 21.4193C16.8015 21.4335 16.7946 21.4467 16.785 21.4579L16.428 21.9939C16.4177 22.0077 16.4042 22.0189 16.3887 22.0266C16.3733 22.0342 16.3562 22.0381 16.339 22.0379C16.3171 22.0365 16.2957 22.0308 16.276 22.0209Z" fill="#1F1F39"/>
    <path d="M14.376 21.6459C14.3602 21.622 14.3541 21.5928 14.3591 21.5646C14.3642 21.5363 14.3799 21.511 14.403 21.4939L14.938 21.1369C14.962 21.1211 14.9911 21.115 15.0194 21.1201C15.0477 21.1251 15.073 21.1408 15.09 21.1639C15.1065 21.1881 15.1129 21.2177 15.1078 21.2464C15.1028 21.2752 15.0867 21.3009 15.063 21.3179L14.528 21.6729C14.5088 21.6839 14.4871 21.6898 14.465 21.6899C14.4478 21.6901 14.4307 21.6862 14.4153 21.6786C14.3998 21.6709 14.3864 21.6597 14.376 21.6459Z" fill="#1F1F39"/>
    <path d="M18.196 22.1089V21.6629C18.1966 21.6347 18.208 21.6078 18.228 21.5878C18.2479 21.5679 18.2748 21.5564 18.303 21.5559C18.3308 21.5578 18.3569 21.5697 18.3766 21.5893C18.3963 21.609 18.4082 21.6351 18.41 21.6629V22.1089C18.4112 22.1233 18.4093 22.1378 18.4044 22.1514C18.3994 22.1649 18.3916 22.1773 18.3814 22.1876C18.3713 22.1978 18.359 22.2058 18.3455 22.2108C18.3319 22.2159 18.3175 22.218 18.303 22.2169C18.2747 22.2164 18.2476 22.2048 18.2276 22.1846C18.2076 22.1645 18.1963 22.1373 18.196 22.1089V22.1089Z" fill="#1F1F39"/>
    <path d="M19.893 21.8789L19.714 21.4309C19.7085 21.4174 19.7058 21.403 19.7061 21.3884C19.7063 21.3738 19.7094 21.3595 19.7153 21.3461C19.7212 21.3328 19.7297 21.3208 19.7403 21.3108C19.7509 21.3008 19.7634 21.293 19.777 21.2879C19.7905 21.2826 19.8048 21.2801 19.8193 21.2804C19.8337 21.2807 19.848 21.2838 19.8612 21.2897C19.8744 21.2956 19.8863 21.304 19.8963 21.3145C19.9062 21.325 19.9139 21.3374 19.919 21.3509L20.098 21.7969C20.1035 21.8104 20.1062 21.8249 20.1059 21.8395C20.1057 21.854 20.1026 21.8684 20.0967 21.8817C20.0908 21.8951 20.0823 21.9071 20.0717 21.9171C20.0611 21.9271 20.0487 21.9348 20.035 21.9399C20.027 21.9489 20.018 21.9489 20 21.9489C19.9773 21.949 19.955 21.9425 19.936 21.93C19.917 21.9176 19.902 21.8998 19.893 21.8789Z" fill="#1F1F39"/>
    <path d="M21.91 21.7529L21.285 21.3959C21.2592 21.3814 21.2401 21.3574 21.2317 21.329C21.2233 21.3006 21.2263 21.2701 21.24 21.2439C21.2545 21.2182 21.2785 21.1991 21.3069 21.1907C21.3352 21.1823 21.3658 21.1852 21.392 21.1989L22.017 21.5559C22.0389 21.5683 22.0561 21.5876 22.066 21.6107C22.0759 21.6338 22.0779 21.6596 22.0718 21.684C22.0657 21.7084 22.0517 21.7301 22.032 21.7458C22.0124 21.7615 21.9881 21.7703 21.963 21.7709C21.9442 21.7689 21.9261 21.7628 21.91 21.7529Z" fill="#1F1F39"/>
    <g opacity="0.592">
        <g opacity="0.592">
            <path opacity="0.592" d="M12.9878 34.7679C13.0737 34.8127 13.1678 34.8396 13.2643 34.8472C13.3609 34.8548 13.458 34.8428 13.5498 34.8119C13.7818 34.7499 14.0228 34.6329 14.2548 34.7579C14.3538 34.812 14.432 34.8975 14.4772 35.0008C14.5224 35.1041 14.5322 35.2195 14.5048 35.3289C14.4868 35.4089 14.6118 35.4449 14.6298 35.3649C14.6555 35.2642 14.656 35.1588 14.6314 35.0578C14.6068 34.9569 14.5578 34.8635 14.4887 34.7859C14.4196 34.7083 14.3325 34.6489 14.235 34.6128C14.1376 34.5767 14.0328 34.5651 13.9298 34.5789C13.7016 34.649 13.4672 34.6969 13.2298 34.7219C12.9788 34.7049 12.9158 34.4729 12.8718 34.2499C12.8701 34.2416 12.8667 34.2337 12.8618 34.2266C12.857 34.2196 12.8508 34.2136 12.8437 34.209C12.8365 34.2043 12.8285 34.2011 12.8202 34.1996C12.8118 34.198 12.8032 34.1981 12.7948 34.1999C12.7865 34.2017 12.7786 34.2051 12.7716 34.2099C12.7645 34.2147 12.7585 34.2209 12.7539 34.2281C12.7492 34.2352 12.746 34.2432 12.7445 34.2516C12.7429 34.26 12.7431 34.2686 12.7448 34.2769C12.76 34.4656 12.847 34.6414 12.9878 34.7679Z" fill="#BFE3C6"/>
            <path opacity="0.592" d="M11.7298 39.2039C11.8341 39.4019 11.9959 39.5636 12.1938 39.6679C12.3988 39.7929 12.6138 39.9539 12.5598 40.2209C12.4968 40.5099 12.2208 40.6679 11.9878 40.8009C11.9741 40.8109 11.9646 40.8257 11.9612 40.8424C11.9579 40.8591 11.9609 40.8764 11.9697 40.891C11.9785 40.9055 11.9924 40.9163 12.0087 40.9211C12.025 40.9259 12.0426 40.9244 12.0578 40.9169C12.3047 40.8031 12.5104 40.616 12.6468 40.3809C12.6949 40.2812 12.7121 40.1694 12.6963 40.0598C12.6804 39.9502 12.6322 39.8479 12.5578 39.7659C12.3988 39.5959 12.1668 39.5159 12.0058 39.3549C11.9067 39.2549 11.8401 39.1274 11.8146 38.989C11.7891 38.8505 11.8059 38.7076 11.8628 38.5789C11.8808 38.5099 11.7468 38.4809 11.7208 38.5519C11.678 38.6555 11.6567 38.7667 11.6583 38.8788C11.6598 38.9909 11.6842 39.1015 11.7298 39.2039Z" fill="#BFE3C6"/>
            <path opacity="0.592" d="M4.74889 36.874C4.73105 36.7916 4.73861 36.7057 4.77057 36.6277C4.80252 36.5497 4.85738 36.4832 4.92789 36.437C5.26689 36.223 5.60589 36.537 5.93689 36.562C6.23689 36.589 6.43689 36.321 6.51689 36.053C6.554 35.9197 6.56286 35.7801 6.54288 35.6432C6.52291 35.5063 6.47454 35.3751 6.40089 35.258C6.39072 35.2448 6.37611 35.2359 6.35982 35.2328C6.34352 35.2297 6.32665 35.2327 6.3124 35.2412C6.29814 35.2497 6.28747 35.2631 6.28241 35.2789C6.27734 35.2947 6.27822 35.3118 6.28489 35.327C6.36866 35.4568 6.41471 35.6074 6.41788 35.7619C6.42106 35.9164 6.38125 36.0688 6.30289 36.202C6.26596 36.2863 6.19868 36.3536 6.1144 36.3907C6.03012 36.4277 5.93499 36.4318 5.84789 36.402C5.69049 36.339 5.52955 36.2852 5.36589 36.241C5.23401 36.2046 5.09379 36.2129 4.96714 36.2646C4.8405 36.3164 4.73456 36.4086 4.66589 36.527C4.61541 36.6636 4.59994 36.8108 4.62089 36.955C4.62935 37.1329 4.65616 37.3095 4.70089 37.482C4.71889 37.562 4.84389 37.527 4.82589 37.446C4.77838 37.2589 4.75255 37.0669 4.74889 36.874Z" fill="#BFE3C6"/>
            <path opacity="0.592" d="M9.26585 46.0139C9.30256 46.0008 9.34183 45.9964 9.38054 46.0011C9.41924 46.0058 9.45633 46.0194 9.48885 46.0409C9.61773 46.1266 9.73737 46.2255 9.84585 46.3359C10.0777 46.5303 10.3587 46.6569 10.6578 46.7019C10.7876 46.7223 10.9203 46.713 11.0459 46.6747C11.1716 46.6364 11.2869 46.57 11.3832 46.4807C11.4794 46.3913 11.5542 46.2813 11.6018 46.1589C11.6493 46.0365 11.6685 45.9048 11.6578 45.7739C11.6408 45.6929 11.5158 45.7279 11.5338 45.8089C11.5477 45.9647 11.5084 46.1206 11.4223 46.2511C11.3362 46.3817 11.2085 46.4793 11.0598 46.5279C10.9022 46.5731 10.7363 46.5825 10.5746 46.5553C10.4128 46.5281 10.2591 46.4651 10.1248 46.3709C9.98349 46.2798 9.85121 46.1753 9.72985 46.0589C9.63759 45.9645 9.51976 45.8992 9.39085 45.8709C9.17685 45.8449 8.94485 46.0589 9.05185 46.2729C9.08785 46.3449 9.20385 46.2819 9.16785 46.2019C9.13185 46.1219 9.20385 46.0499 9.26585 46.0139Z" fill="#BFE3C6"/>
            <path opacity="0.592" d="M18.344 44.2649C18.3522 44.3902 18.3906 44.5117 18.4559 44.6189C18.5212 44.7262 18.6115 44.8161 18.719 44.8809C18.942 45.0509 19.264 45.2019 19.319 45.5059C19.373 45.8449 18.98 45.9169 18.73 45.8899C18.641 45.8809 18.65 46.0149 18.73 46.0239C18.8509 46.0492 18.9763 46.041 19.0928 46.0001C19.2093 45.9592 19.3124 45.8872 19.391 45.7919C19.4485 45.6745 19.4639 45.5408 19.4346 45.4134C19.4053 45.2859 19.3331 45.1724 19.23 45.0919C19.025 44.8869 18.73 44.7919 18.569 44.5389C18.5005 44.3859 18.4832 44.2148 18.5198 44.0512C18.5564 43.8876 18.6448 43.7402 18.772 43.6309C18.826 43.5779 18.728 43.4799 18.674 43.5419C18.4788 43.7341 18.3613 43.9915 18.344 44.2649V44.2649Z" fill="#BFE3C6"/>
            <path opacity="0.592" d="M25.824 45.8359C25.7602 45.9501 25.729 46.0795 25.7337 46.2102C25.7385 46.3409 25.779 46.4677 25.851 46.5769C25.9401 46.7063 26.0035 46.8516 26.038 47.0049C26.0553 47.1547 26.0137 47.3053 25.922 47.4249C25.8739 47.4847 25.8138 47.5337 25.7456 47.5687C25.6774 47.6037 25.6026 47.624 25.526 47.6283C25.4494 47.6325 25.3728 47.6206 25.3011 47.5933C25.2295 47.566 25.1643 47.524 25.11 47.4699C25.0967 47.4566 25.0787 47.4492 25.06 47.4492C25.0412 47.4492 25.0232 47.4566 25.01 47.4699C24.9967 47.4832 24.9893 47.5012 24.9893 47.5199C24.9893 47.5387 24.9967 47.5566 25.01 47.5699C25.1113 47.6642 25.2378 47.727 25.3741 47.7508C25.5104 47.7746 25.6507 47.7583 25.778 47.7039C25.9008 47.6441 26.0035 47.5497 26.0734 47.4322C26.1432 47.3148 26.1771 47.1794 26.171 47.0429C26.155 46.7289 25.86 46.5049 25.86 46.1839C25.8627 46.0355 25.921 45.8935 26.0234 45.7861C26.1258 45.6787 26.2649 45.6137 26.413 45.6039C26.4307 45.6039 26.4478 45.5969 26.4603 45.5843C26.4729 45.5717 26.48 45.5547 26.48 45.5369C26.48 45.5191 26.4729 45.5021 26.4603 45.4895C26.4478 45.477 26.4307 45.4699 26.413 45.4699C26.2917 45.4757 26.174 45.5123 26.0709 45.5764C25.9678 45.6404 25.8828 45.7298 25.824 45.8359Z" fill="#BFE3C6"/>
            <path opacity="0.592" d="M21.8879 33.5349C22.0023 33.773 22.1596 33.9879 22.3519 34.1689C22.4589 34.2849 22.5519 34.4549 22.3789 34.5619C22.2288 34.6435 22.0578 34.6783 21.8879 34.6619C21.8701 34.6619 21.8531 34.669 21.8405 34.6816C21.8279 34.6941 21.8209 34.7112 21.8209 34.7289C21.8209 34.7467 21.8279 34.7637 21.8405 34.7763C21.8531 34.7889 21.8701 34.7959 21.8879 34.7959C22.1109 34.8049 22.5039 34.7599 22.5929 34.5189C22.6819 34.2779 22.4499 34.0799 22.3069 33.9279C22.0873 33.7186 21.9591 33.4312 21.9499 33.1279C21.9498 32.9946 21.9908 32.8644 22.0674 32.7553C22.144 32.6461 22.2524 32.5632 22.3779 32.5179C22.3869 32.5156 22.3954 32.5116 22.4029 32.506C22.4104 32.5004 22.4168 32.4934 22.4215 32.4853C22.4263 32.4773 22.4295 32.4684 22.4308 32.4592C22.4322 32.4499 22.4317 32.4405 22.4294 32.4314C22.4271 32.4224 22.423 32.4139 22.4174 32.4064C22.4118 32.3989 22.4048 32.3925 22.3968 32.3878C22.3888 32.383 22.3799 32.3798 22.3706 32.3785C22.3614 32.3771 22.3519 32.3776 22.3429 32.3799C22.2348 32.423 22.1368 32.4877 22.0547 32.5701C21.9726 32.6525 21.9083 32.7509 21.8657 32.8591C21.8231 32.9673 21.803 33.0831 21.8069 33.1993C21.8107 33.3155 21.8382 33.4298 21.8879 33.5349Z" fill="#BFE3C6"/>
            <path opacity="0.592" d="M21.7808 38.7389C22.0488 38.8819 22.1018 39.2119 22.1918 39.4709C22.2248 39.5985 22.2873 39.7166 22.3741 39.8157C22.4609 39.9149 22.5697 39.9923 22.6918 40.0419C22.9544 40.1356 23.2412 40.1356 23.5038 40.0419C23.6538 39.9736 23.7886 39.8761 23.9004 39.7551C24.0122 39.634 24.0987 39.4918 24.1548 39.3369C24.1908 39.2569 24.0548 39.2209 24.0298 39.3009C23.9754 39.4481 23.8897 39.5818 23.7787 39.6928C23.6677 39.8038 23.534 39.8895 23.3868 39.9439C23.2415 39.9873 23.0879 39.9953 22.9388 39.9673C22.7897 39.9393 22.6495 39.8761 22.5298 39.7829C22.3158 39.5829 22.2978 39.2649 22.1908 39.0059C22.1492 38.895 22.0824 38.7954 21.9956 38.7148C21.9088 38.6343 21.8045 38.5751 21.6908 38.5419C21.56 38.5097 21.4231 38.5117 21.2933 38.5478C21.1635 38.5839 21.0452 38.6528 20.9498 38.7479C20.8788 38.8279 20.9678 38.9179 21.0298 38.8549C21.1247 38.7554 21.2497 38.6901 21.3856 38.6692C21.5214 38.6482 21.6604 38.6727 21.7808 38.7389Z" fill="#BFE3C6"/>
            <path opacity="0.592" d="M30.002 36.2139C29.9281 36.4404 29.9303 36.6848 30.008 36.9099C30.053 37.1419 30.062 37.4099 29.829 37.5439C29.7267 37.5956 29.6089 37.6077 29.4982 37.578C29.3875 37.5483 29.2917 37.4788 29.229 37.3829C29.184 37.3119 29.068 37.3829 29.113 37.4539C29.1707 37.5453 29.2514 37.6198 29.3471 37.67C29.4428 37.7202 29.55 37.7443 29.658 37.7399C29.7649 37.7313 29.867 37.6922 29.9524 37.6273C30.0379 37.5625 30.1029 37.4746 30.14 37.3739C30.1816 37.1205 30.1648 36.8609 30.091 36.6149C30.0623 36.4837 30.0845 36.3465 30.153 36.2309C30.1819 36.1835 30.2253 36.1466 30.2768 36.1257C30.3283 36.1048 30.3852 36.101 30.439 36.1149C30.519 36.1239 30.555 35.9989 30.475 35.9719C30.3803 35.9508 30.2812 35.9634 30.1948 36.0076C30.1084 36.0518 30.0402 36.1248 30.002 36.2139Z" fill="#BFE3C6"/>
        </g>
        <path opacity="0.592" d="M35.4338 41.406L35.443 41.4945L28.9352 42.1724L28.926 42.0839L35.4338 41.406Z" fill="#BFE3C6"/>
        <path opacity="0.592" d="M6.7565 41.0455L6.75841 41.1345L0.3149 41.2729L0.312988 41.184L6.7565 41.0455Z" fill="#BFE3C6"/>
    </g>
</svg>